<?xml version="1.0" encoding="UTF-8"?>
<svg xmlns="http://www.w3.org/2000/svg" xmlns:xlink="http://www.w3.org/1999/xlink" width="0" height="0">
<defs>
<symbol viewBox="0 0 24 24" fill="none" stroke="currentColor" stroke-width="2" stroke-linecap="round" stroke-linejoin="round" class="lucide lucide-triangle-alert-icon lucide-triangle-alert" id="TriangleAlert"><path d="m21.73 18-8-14a2 2 0 0 0-3.48 0l-8 14A2 2 0 0 0 4 21h16a2 2 0 0 0 1.73-3"></path><path d="M12 9v4"></path><path d="M12 17h.01"></path></symbol>
<symbol viewBox="0 0 24 24" fill="none" stroke="currentColor" stroke-width="2" stroke-linecap="round" stroke-linejoin="round" class="lucide lucide-sun-icon lucide-sun" id="Sun"><circle cx="12" cy="12" r="4"></circle><path d="M12 2v2"></path><path d="M12 20v2"></path><path d="m4.93 4.93 1.41 1.41"></path><path d="m17.66 17.66 1.41 1.41"></path><path d="M2 12h2"></path><path d="M20 12h2"></path><path d="m6.34 17.66-1.41 1.41"></path><path d="m19.07 4.93-1.41 1.41"></path></symbol>
<symbol viewBox="0 0 24 24" fill="none" stroke="currentColor" stroke-width="2" stroke-linecap="round" stroke-linejoin="round" class="lucide lucide-moon-icon lucide-moon" id="Moon"><path d="M12 3a6 6 0 0 0 9 9 9 9 0 1 1-9-9Z"></path></symbol>
<symbol viewBox="0 0 24 24" fill="none" stroke="currentColor" stroke-width="2" stroke-linecap="round" stroke-linejoin="round" class="lucide lucide-info-icon lucide-info" id="Info"><circle cx="12" cy="12" r="10"></circle><path d="M12 16v-4"></path><path d="M12 8h.01"></path></symbol>
<symbol viewBox="0 0 24 24" fill="none" stroke="currentColor" stroke-width="2" stroke-linecap="round" stroke-linejoin="round" class="lucide lucide-ghost" id="Ghost"><path d="M9 10h.01"></path><path d="M15 10h.01"></path><path d="M12 2a8 8 0 0 0-8 8v12l3-3 2.5 2.5L12 19l2.5 2.5L17 19l3 3V10a8 8 0 0 0-8-8z"></path></symbol>
<symbol viewBox="0 0 24 24" fill="none" stroke="currentColor" stroke-width="2" stroke-linecap="round" stroke-linejoin="round" class="lucide lucide-clipboard-copy-icon lucide-clipboard-copy" id="ClipboardCopy"><rect width="8" height="4" x="8" y="2" rx="1" ry="1"></rect><path d="M8 4H6a2 2 0 0 0-2 2v14a2 2 0 0 0 2 2h12a2 2 0 0 0 2-2v-2"></path><path d="M16 4h2a2 2 0 0 1 2 2v4"></path><path d="M21 14H11"></path><path d="m15 10-4 4 4 4"></path></symbol>
<symbol viewBox="0 0 24 24" fill="none" stroke="currentColor" stroke-width="2" stroke-linecap="round" stroke-linejoin="round" class="lucide lucide-clipboard-check-icon lucide-clipboard-check" id="ClipboardCheck"><rect width="8" height="4" x="8" y="2" rx="1" ry="1"></rect><path d="M16 4h2a2 2 0 0 1 2 2v14a2 2 0 0 1-2 2H6a2 2 0 0 1-2-2V6a2 2 0 0 1 2-2h2"></path><path d="m9 14 2 2 4-4"></path></symbol>
<symbol viewBox="0 0 24 24" fill="none" stroke="currentColor" stroke-width="2" stroke-linecap="round" stroke-linejoin="round" class="lucide lucide-chevron-down-icon lucide-chevron-down" id="ChevronDown"><path d="m6 9 6 6 6-6"></path></symbol>
</defs>
</svg>